<mxfile host="Electron" modified="2024-05-22T10:12:04.888Z" agent="Mozilla/5.0 (Windows NT 10.0; Win64; x64) AppleWebKit/537.36 (KHTML, like Gecko) draw.io/24.4.0 Chrome/120.0.6099.109 Electron/28.1.0 Safari/537.36" etag="Gjpc5dZlpqmmFi8dgMij" version="24.4.0" type="device">
  <diagram name="Page-1" id="k70_h1hA7U0qxnC2twSd">
    <mxGraphModel dx="1354" dy="818" grid="1" gridSize="10" guides="1" tooltips="1" connect="1" arrows="1" fold="1" page="1" pageScale="1" pageWidth="1100" pageHeight="850" math="0" shadow="0">
      <root>
        <mxCell id="0" />
        <mxCell id="1" parent="0" />
        <mxCell id="tskEYitydOlstha6U6yZ-5" value="" style="swimlane;childLayout=stackLayout;horizontal=1;startSize=70;horizontalStack=0;rounded=1;fontSize=14;fontStyle=0;strokeWidth=2;resizeParent=0;resizeLast=1;shadow=0;dashed=0;align=center;arcSize=29;whiteSpace=wrap;html=1;" parent="1" vertex="1">
          <mxGeometry x="433" y="320" width="233.34" height="240" as="geometry" />
        </mxCell>
        <mxCell id="tskEYitydOlstha6U6yZ-6" value="&lt;div style=&quot;font-size: 25px;&quot;&gt;&lt;font style=&quot;font-size: 25px;&quot;&gt;&lt;br style=&quot;&quot;&gt;&lt;/font&gt;&lt;/div&gt;&lt;font style=&quot;font-size: 25px;&quot;&gt;Current&amp;nbsp;&lt;/font&gt;&lt;div style=&quot;font-size: 25px;&quot;&gt;&lt;font style=&quot;font-size: 25px;&quot;&gt;Manual&amp;nbsp;&lt;/font&gt;&lt;/div&gt;&lt;div style=&quot;font-size: 25px;&quot;&gt;&lt;font style=&quot;font-size: 25px;&quot;&gt;Payroll System&lt;/font&gt;&lt;/div&gt;" style="align=center;strokeColor=none;fillColor=none;spacingLeft=4;fontSize=20;verticalAlign=top;resizable=0;rotatable=0;part=1;html=1;" parent="tskEYitydOlstha6U6yZ-5" vertex="1">
          <mxGeometry y="70" width="233.34" height="170" as="geometry" />
        </mxCell>
        <mxCell id="tskEYitydOlstha6U6yZ-19" style="edgeStyle=orthogonalEdgeStyle;rounded=0;orthogonalLoop=1;jettySize=auto;html=1;exitX=-0.006;exitY=0.262;exitDx=0;exitDy=0;exitPerimeter=0;strokeWidth=4;entryX=0.845;entryY=0.992;entryDx=0;entryDy=0;entryPerimeter=0;startArrow=classic;startFill=1;endArrow=none;endFill=0;" parent="1" target="tskEYitydOlstha6U6yZ-6" edge="1">
          <mxGeometry relative="1" as="geometry">
            <mxPoint x="630" y="580" as="targetPoint" />
            <mxPoint x="838.8" y="627.1600000000001" as="sourcePoint" />
            <Array as="points">
              <mxPoint x="630" y="627" />
            </Array>
          </mxGeometry>
        </mxCell>
        <mxCell id="tskEYitydOlstha6U6yZ-17" style="edgeStyle=orthogonalEdgeStyle;rounded=0;orthogonalLoop=1;jettySize=auto;html=1;entryX=0.367;entryY=1;entryDx=0;entryDy=0;entryPerimeter=0;exitX=1.001;exitY=0.484;exitDx=0;exitDy=0;exitPerimeter=0;strokeWidth=3;" parent="1" target="tskEYitydOlstha6U6yZ-6" edge="1">
          <mxGeometry relative="1" as="geometry">
            <mxPoint x="280.20000000000005" y="687.1200000000001" as="sourcePoint" />
          </mxGeometry>
        </mxCell>
        <mxCell id="tskEYitydOlstha6U6yZ-18" style="edgeStyle=orthogonalEdgeStyle;rounded=0;orthogonalLoop=1;jettySize=auto;html=1;entryX=0.134;entryY=-0.023;entryDx=0;entryDy=0;entryPerimeter=0;strokeWidth=4;" parent="1" source="tskEYitydOlstha6U6yZ-6" edge="1" target="tskEYitydOlstha6U6yZ-36">
          <mxGeometry relative="1" as="geometry">
            <mxPoint x="217.20000000000005" y="598.56" as="targetPoint" />
          </mxGeometry>
        </mxCell>
        <mxCell id="tskEYitydOlstha6U6yZ-21" style="edgeStyle=orthogonalEdgeStyle;rounded=0;orthogonalLoop=1;jettySize=auto;html=1;exitX=1;exitY=0.25;exitDx=0;exitDy=0;strokeWidth=4;entryX=1;entryY=0.522;entryDx=0;entryDy=0;entryPerimeter=0;" parent="1" source="tskEYitydOlstha6U6yZ-6" edge="1">
          <mxGeometry relative="1" as="geometry">
            <mxPoint x="660" y="113.96000000000004" as="targetPoint" />
            <Array as="points">
              <mxPoint x="880" y="433" />
              <mxPoint x="880" y="114" />
            </Array>
          </mxGeometry>
        </mxCell>
        <mxCell id="tskEYitydOlstha6U6yZ-22" style="edgeStyle=orthogonalEdgeStyle;rounded=0;orthogonalLoop=1;jettySize=auto;html=1;strokeWidth=3;exitX=0;exitY=0.711;exitDx=0;exitDy=0;exitPerimeter=0;entryX=-0.01;entryY=0.1;entryDx=0;entryDy=0;entryPerimeter=0;" parent="1" target="tskEYitydOlstha6U6yZ-5" edge="1">
          <mxGeometry relative="1" as="geometry">
            <mxPoint x="460" y="147.98000000000002" as="sourcePoint" />
            <Array as="points">
              <mxPoint x="260" y="148" />
              <mxPoint x="260" y="344" />
            </Array>
            <mxPoint x="390" y="407" as="targetPoint" />
          </mxGeometry>
        </mxCell>
        <mxCell id="tskEYitydOlstha6U6yZ-24" value="&lt;font style=&quot;font-size: 15px;&quot;&gt;Cash Advance Detail&lt;/font&gt;" style="text;strokeColor=none;align=center;fillColor=none;html=1;verticalAlign=middle;whiteSpace=wrap;rounded=0;" parent="1" vertex="1">
          <mxGeometry x="630" y="670" width="160" height="30" as="geometry" />
        </mxCell>
        <mxCell id="tskEYitydOlstha6U6yZ-25" value="&lt;font style=&quot;font-size: 15px;&quot;&gt;Manual Monitor&lt;/font&gt;" style="text;strokeColor=none;align=center;fillColor=none;html=1;verticalAlign=middle;whiteSpace=wrap;rounded=0;" parent="1" vertex="1">
          <mxGeometry x="331" y="690" width="160" height="30" as="geometry" />
        </mxCell>
        <mxCell id="tskEYitydOlstha6U6yZ-26" style="edgeStyle=orthogonalEdgeStyle;rounded=0;orthogonalLoop=1;jettySize=auto;html=1;exitX=1.015;exitY=0.246;exitDx=0;exitDy=0;entryX=0.135;entryY=1.034;entryDx=0;entryDy=0;entryPerimeter=0;exitPerimeter=0;strokeWidth=3;" parent="1" target="tskEYitydOlstha6U6yZ-6" edge="1">
          <mxGeometry relative="1" as="geometry">
            <mxPoint x="283" y="644.28" as="sourcePoint" />
          </mxGeometry>
        </mxCell>
        <mxCell id="tskEYitydOlstha6U6yZ-27" value="&lt;font style=&quot;font-size: 15px;&quot;&gt;Payroll Detail&lt;/font&gt;" style="text;strokeColor=none;align=center;fillColor=none;html=1;verticalAlign=middle;whiteSpace=wrap;rounded=0;" parent="1" vertex="1">
          <mxGeometry x="230" y="440" width="130" height="30" as="geometry" />
        </mxCell>
        <mxCell id="tskEYitydOlstha6U6yZ-28" value="&lt;font style=&quot;font-size: 15px;&quot;&gt;Employee Salary Detail&lt;/font&gt;" style="text;strokeColor=none;align=center;fillColor=none;html=1;verticalAlign=middle;whiteSpace=wrap;rounded=0;" parent="1" vertex="1">
          <mxGeometry x="645" y="600" width="190" height="30" as="geometry" />
        </mxCell>
        <mxCell id="tskEYitydOlstha6U6yZ-29" value="&lt;font style=&quot;font-size: 15px;&quot;&gt;Cash Advance Report&lt;/font&gt;" style="text;strokeColor=none;align=center;fillColor=none;html=1;verticalAlign=middle;whiteSpace=wrap;rounded=0;" parent="1" vertex="1">
          <mxGeometry x="691.5" y="390" width="160" height="30" as="geometry" />
        </mxCell>
        <mxCell id="tskEYitydOlstha6U6yZ-30" value="&lt;font style=&quot;font-size: 15px;&quot;&gt;Deduction Detail&lt;/font&gt;" style="text;strokeColor=none;align=center;fillColor=none;html=1;verticalAlign=middle;whiteSpace=wrap;rounded=0;" parent="1" vertex="1">
          <mxGeometry x="280" y="310" width="130" height="30" as="geometry" />
        </mxCell>
        <mxCell id="tskEYitydOlstha6U6yZ-31" style="edgeStyle=orthogonalEdgeStyle;rounded=0;orthogonalLoop=1;jettySize=auto;html=1;entryX=1.035;entryY=0.647;entryDx=0;entryDy=0;entryPerimeter=0;strokeWidth=3;" parent="1" target="tskEYitydOlstha6U6yZ-6" edge="1">
          <mxGeometry relative="1" as="geometry">
            <mxPoint x="660" y="70" as="sourcePoint" />
            <Array as="points">
              <mxPoint x="660" y="73" />
              <mxPoint x="960" y="73" />
              <mxPoint x="960" y="500" />
            </Array>
          </mxGeometry>
        </mxCell>
        <mxCell id="tskEYitydOlstha6U6yZ-34" value="" style="html=1;dashed=0;whiteSpace=wrap;shape=mxgraph.dfd.externalEntity" parent="1" vertex="1">
          <mxGeometry x="460" y="10" width="200" height="180" as="geometry" />
        </mxCell>
        <mxCell id="tskEYitydOlstha6U6yZ-32" value="&lt;font style=&quot;font-size: 15px;&quot;&gt;Employee Schedule Detail&lt;/font&gt;" style="text;strokeColor=none;align=center;fillColor=none;html=1;verticalAlign=middle;whiteSpace=wrap;rounded=0;" parent="1" vertex="1">
          <mxGeometry x="700" y="470" width="190" height="30" as="geometry" />
        </mxCell>
        <mxCell id="tskEYitydOlstha6U6yZ-33" value="&lt;b&gt;&lt;i&gt;Context Diagram of the Current Payroll System of Computer Systems Institute&amp;nbsp;&lt;/i&gt;&lt;/b&gt;" style="text;strokeColor=none;align=center;fillColor=none;html=1;verticalAlign=middle;whiteSpace=wrap;rounded=0;" parent="1" vertex="1">
          <mxGeometry x="350" y="780" width="460" height="30" as="geometry" />
        </mxCell>
        <mxCell id="tskEYitydOlstha6U6yZ-36" value="" style="html=1;dashed=0;whiteSpace=wrap;shape=mxgraph.dfd.externalEntity" parent="1" vertex="1">
          <mxGeometry x="90" y="600" width="200" height="180" as="geometry" />
        </mxCell>
        <mxCell id="tskEYitydOlstha6U6yZ-16" value="&lt;font style=&quot;font-size: 30px;&quot;&gt;Employee&lt;/font&gt;" style="text;strokeColor=none;align=center;fillColor=none;html=1;verticalAlign=middle;whiteSpace=wrap;rounded=0;" parent="tskEYitydOlstha6U6yZ-36" vertex="1">
          <mxGeometry x="10" y="20" width="180" height="150" as="geometry" />
        </mxCell>
        <mxCell id="tskEYitydOlstha6U6yZ-39" value="" style="html=1;dashed=0;whiteSpace=wrap;shape=mxgraph.dfd.externalEntity" parent="1" vertex="1">
          <mxGeometry x="840" y="570" width="220" height="180" as="geometry" />
        </mxCell>
        <mxCell id="tskEYitydOlstha6U6yZ-14" value="&lt;font style=&quot;font-size: 30px;&quot;&gt;Cashier&lt;/font&gt;" style="text;strokeColor=none;align=center;fillColor=none;html=1;verticalAlign=middle;whiteSpace=wrap;rounded=0;" parent="tskEYitydOlstha6U6yZ-39" vertex="1">
          <mxGeometry x="30" y="20" width="180" height="150" as="geometry" />
        </mxCell>
        <mxCell id="tskEYitydOlstha6U6yZ-42" value="&lt;font style=&quot;font-size: 24px;&quot;&gt;0&lt;/font&gt;" style="text;strokeColor=none;align=center;fillColor=none;html=1;verticalAlign=middle;whiteSpace=wrap;rounded=0;" parent="1" vertex="1">
          <mxGeometry x="521" y="340" width="60" height="30" as="geometry" />
        </mxCell>
        <mxCell id="tskEYitydOlstha6U6yZ-12" value="&lt;font style=&quot;font-size: 30px;&quot;&gt;President&lt;/font&gt;" style="text;strokeColor=none;align=center;fillColor=none;html=1;verticalAlign=middle;whiteSpace=wrap;rounded=0;" parent="1" vertex="1">
          <mxGeometry x="470" y="25" width="180" height="150" as="geometry" />
        </mxCell>
        <mxCell id="33z3pGkNlNJdekLzD28D-2" style="edgeStyle=orthogonalEdgeStyle;rounded=0;orthogonalLoop=1;jettySize=auto;html=1;exitX=0.75;exitY=1;exitDx=0;exitDy=0;entryX=0;entryY=0;entryDx=0;entryDy=127.5;entryPerimeter=0;strokeWidth=3;" edge="1" parent="1" source="tskEYitydOlstha6U6yZ-6" target="tskEYitydOlstha6U6yZ-39">
          <mxGeometry relative="1" as="geometry" />
        </mxCell>
        <mxCell id="33z3pGkNlNJdekLzD28D-3" value="&lt;font style=&quot;font-size: 15px;&quot;&gt;Cash Advance&lt;/font&gt;" style="text;strokeColor=none;align=center;fillColor=none;html=1;verticalAlign=middle;whiteSpace=wrap;rounded=0;" vertex="1" parent="1">
          <mxGeometry x="310" y="610" width="160" height="30" as="geometry" />
        </mxCell>
        <mxCell id="33z3pGkNlNJdekLzD28D-5" style="edgeStyle=orthogonalEdgeStyle;rounded=0;orthogonalLoop=1;jettySize=auto;html=1;entryX=-0.01;entryY=0.216;entryDx=0;entryDy=0;entryPerimeter=0;strokeWidth=3;" edge="1" parent="1" source="tskEYitydOlstha6U6yZ-34" target="tskEYitydOlstha6U6yZ-5">
          <mxGeometry relative="1" as="geometry">
            <Array as="points">
              <mxPoint x="190" y="100" />
              <mxPoint x="190" y="372" />
            </Array>
          </mxGeometry>
        </mxCell>
        <mxCell id="33z3pGkNlNJdekLzD28D-6" style="edgeStyle=orthogonalEdgeStyle;rounded=0;orthogonalLoop=1;jettySize=auto;html=1;exitX=0;exitY=0.75;exitDx=0;exitDy=0;entryX=0.395;entryY=0.003;entryDx=0;entryDy=0;entryPerimeter=0;strokeWidth=3;" edge="1" parent="1" source="tskEYitydOlstha6U6yZ-6" target="tskEYitydOlstha6U6yZ-36">
          <mxGeometry relative="1" as="geometry" />
        </mxCell>
        <mxCell id="33z3pGkNlNJdekLzD28D-7" value="&lt;font style=&quot;font-size: 15px;&quot;&gt;Salary Report&lt;/font&gt;" style="text;strokeColor=none;align=center;fillColor=none;html=1;verticalAlign=middle;whiteSpace=wrap;rounded=0;" vertex="1" parent="1">
          <mxGeometry x="270" y="60" width="130" height="30" as="geometry" />
        </mxCell>
        <mxCell id="33z3pGkNlNJdekLzD28D-8" value="&lt;font style=&quot;font-size: 15px;&quot;&gt;Schedule Detail&lt;/font&gt;" style="text;strokeColor=none;align=center;fillColor=none;html=1;verticalAlign=middle;whiteSpace=wrap;rounded=0;" vertex="1" parent="1">
          <mxGeometry x="250" y="520" width="130" height="30" as="geometry" />
        </mxCell>
        <mxCell id="33z3pGkNlNJdekLzD28D-9" style="edgeStyle=orthogonalEdgeStyle;rounded=0;orthogonalLoop=1;jettySize=auto;html=1;exitX=1;exitY=0.25;exitDx=0;exitDy=0;entryX=0;entryY=0;entryDx=200;entryDy=137.5;entryPerimeter=0;strokeWidth=3;" edge="1" parent="1" source="tskEYitydOlstha6U6yZ-5" target="tskEYitydOlstha6U6yZ-34">
          <mxGeometry relative="1" as="geometry">
            <Array as="points">
              <mxPoint x="850" y="380" />
              <mxPoint x="850" y="148" />
            </Array>
          </mxGeometry>
        </mxCell>
        <mxCell id="33z3pGkNlNJdekLzD28D-10" value="&lt;font style=&quot;font-size: 15px;&quot;&gt;Manual Monitor Detail&lt;/font&gt;" style="text;strokeColor=none;align=center;fillColor=none;html=1;verticalAlign=middle;whiteSpace=wrap;rounded=0;" vertex="1" parent="1">
          <mxGeometry x="675" y="340" width="160" height="30" as="geometry" />
        </mxCell>
      </root>
    </mxGraphModel>
  </diagram>
</mxfile>
